<?xml version="1.0" ?><svg viewBox="0 0 64 64" xmlns="http://www.w3.org/2000/svg"><defs><style>.cls-1{fill:#dd5891;}.cls-2{fill:#94d8e5;}.cls-3{fill:#d9387c;}</style></defs><g id="Prawn"><path class="cls-1" d="M24.91,16.67a3.9,3.9,0,0,0-2.81,3l-5.62,1.51a1.74,1.74,0,0,0-1.24,2.37,11.14,11.14,0,0,0,13,6l6.4-1.71a10.09,10.09,0,0,1,5.22,19.49L38,47.81a3.37,3.37,0,0,0-4-2.06l-1.56.42a1.57,1.57,0,0,0-1.12,1.93l.39,1.46a3.48,3.48,0,0,0,1.65,2.14A3.47,3.47,0,0,0,33,54.37l.39,1.46A1.59,1.59,0,0,0,35.32,57l1.57-.42a3.38,3.38,0,0,0,2.46-3.8l1.79-.47a18.2,18.2,0,0,0-9.42-35.17l-2.87.77A3.88,3.88,0,0,0,24.91,16.67Z" id="path83386-4"/><path class="cls-2" d="M23.44,38a3.11,3.11,0,1,1-3.11-3.1A3.11,3.11,0,0,1,23.44,38Z" id="path71055-1-6-7-3-9"/><path class="cls-2" d="M17.43,49.48a5,5,0,1,1-5-5A5,5,0,0,1,17.43,49.48Z" id="path23378-5"/><path class="cls-3" d="M36.26,16.46c-.42,0-.85,0-1.27.07a18.21,18.21,0,0,1,3.19,35.73l-1.78.47a3.39,3.39,0,0,1-2.47,3.8l-.11,0a1.6,1.6,0,0,0,1.5.39l1.57-.42a3.38,3.38,0,0,0,2.46-3.8l1.79-.47a18.21,18.21,0,0,0-4.88-35.8Z" id="path449584"/><path d="M25.22,21.6a1,1,0,0,0,1.23.71,1,1,0,0,0,.7-1.22l-.36-1.35a1,1,0,1,0-1.93.51Z"/><path d="M24.44,38h0a4.11,4.11,0,1,0-4.1,4.11A4.11,4.11,0,0,0,24.44,38Zm-6.21,0a2.11,2.11,0,1,1,2.1,2.11A2.1,2.1,0,0,1,18.23,38Z"/><path d="M6.36,49.48a6,6,0,1,0,6-6A6,6,0,0,0,6.36,49.48Zm10.07,0a4,4,0,1,1-4-4A4,4,0,0,1,16.43,49.48Z"/><path d="M18.8,12.18,27.07,10A1,1,0,0,0,26.55,8l-8.27,2.22a7.38,7.38,0,0,0-5.21,9s1,4,1.27,4.68a11.74,11.74,0,0,0,11.5,7l.15.54a3.09,3.09,0,0,0,3,2.29,3.19,3.19,0,0,0,.8-.1,1,1,0,0,0,.7-1.23,1,1,0,0,0-1.22-.7,1.11,1.11,0,0,1-1.34-.78l-.08-.28.61-.13,1.74-.47v.16a3.09,3.09,0,0,0,1,2.13,3,3,0,0,0,2.05.78,1,1,0,1,0,.07-2,1.08,1.08,0,0,1-1.16-1l0-.57,2.7-.72h0a3.1,3.1,0,0,0,2.42,3.56,1,1,0,0,0,.4-2,1.09,1.09,0,0,1-.85-1.29l.12-.58a8.68,8.68,0,0,1,2.15.22l-.09.38a3.11,3.11,0,0,0,2.37,3.68,1,1,0,0,0,.43-2,1.09,1.09,0,0,1-.84-1.3l0-.15a7.65,7.65,0,0,1,.71.32A9,9,0,0,1,46,35.23a9.1,9.1,0,0,1-6.43,11.13l-1,.27a4.36,4.36,0,0,0-4.81-1.84l-1.56.42a2.5,2.5,0,0,0-1.57,1.2,2.6,2.6,0,0,0-.26,2l.39,1.46A4.52,4.52,0,0,0,32.11,52a4.51,4.51,0,0,0-.08,2.6l.39,1.46a2.63,2.63,0,0,0,1.2,1.57,2.67,2.67,0,0,0,1.29.34,2.57,2.57,0,0,0,.67-.09l1.57-.42a4.36,4.36,0,0,0,3.24-4l1-.27a19.2,19.2,0,1,0-9.94-37.1l-2.32.62a4.86,4.86,0,0,0-4.49-1h0a4.86,4.86,0,0,0-3.36,3.15l-2.36.63-.36-1.36a2.6,2.6,0,0,1,1.83-3.18l11-2.93a1,1,0,1,0-.52-1.93L19.89,13a4.6,4.6,0,0,0-3.25,5.63L17,20l-.78.22a2.78,2.78,0,0,0-.75.32L15,18.77A5.39,5.39,0,0,1,18.8,12.18ZM40.88,51.29l-1.79.48a1,1,0,0,0-.72,1.12,2.38,2.38,0,0,1-1.74,2.67L35.07,56a.59.59,0,0,1-.45-.06.55.55,0,0,1-.26-.35L34,54.12a2.41,2.41,0,0,1,.14-1.59L36.17,52a1,1,0,0,0-.52-1.93l-2.06.55a2.41,2.41,0,0,1-.91-1.3l-.39-1.45a.61.61,0,0,1,.05-.44.55.55,0,0,1,.36-.27l1.56-.42a2.25,2.25,0,0,1,.62-.08,2.36,2.36,0,0,1,2.22,1.52,1,1,0,0,0,1.19.61l1.79-.48a10.8,10.8,0,0,0,2.33-.93,10.39,10.39,0,0,0,3.27,1.81A16.91,16.91,0,0,1,40.88,51.29Zm6.84-3.67a8.36,8.36,0,0,1-3.56-1.41,11.16,11.16,0,0,0,4-6.88,10.19,10.19,0,0,0,4.39-.2c.18-.05.36-.13.54-.18A17.31,17.31,0,0,1,47.72,47.62Zm5.33-17.4a17.23,17.23,0,0,1,.46,6.4A8.21,8.21,0,0,1,52,37.2a8.58,8.58,0,0,1-3.74.12,11.16,11.16,0,0,0-.36-2.61,11.3,11.3,0,0,0-1.54-3.36,10.33,10.33,0,0,0,3.75-7.07A17.18,17.18,0,0,1,53.05,30.22ZM48,22a8.31,8.31,0,0,1-2.93,7.8A10.58,10.58,0,0,0,42.75,28a11.15,11.15,0,0,0-4.56-1.44,10.18,10.18,0,0,0-1.08-9.06A17.2,17.2,0,0,1,48,22Zm-31.89.59a.86.86,0,0,1,.58-.46l5.63-1.51a1,1,0,0,0,.73-.77,2.86,2.86,0,0,1,2.08-2.23,2.92,2.92,0,0,1,2.93.89,1,1,0,0,0,1,.3L32,18.05a17,17,0,0,1,2.7-.47,8.23,8.23,0,0,1,1.34,9,12.53,12.53,0,0,0-1.68.31l-6.4,1.71a10.1,10.1,0,0,1-11.76-5.42A.7.7,0,0,1,16.15,22.6Z"/></g></svg>